<?xml version="1.0" encoding="UTF-8" standalone="no"?>
<!-- Created with Inkscape (http://www.inkscape.org/) -->

<svg
   xmlns:dc="http://purl.org/dc/elements/1.1/"
   xmlns:cc="http://creativecommons.org/ns#"
   xmlns:rdf="http://www.w3.org/1999/02/22-rdf-syntax-ns#"
   xmlns:svg="http://www.w3.org/2000/svg"
   xmlns="http://www.w3.org/2000/svg"
   xmlns:sodipodi="http://sodipodi.sourceforge.net/DTD/sodipodi-0.dtd"
   xmlns:inkscape="http://www.inkscape.org/namespaces/inkscape"
   width="770.34375mm"
   height="357.66095mm"
   viewBox="0 0 770.34374 357.66095"
   version="1.1"
   id="svg8"
   inkscape:version="0.92.3 (2405546, 2018-03-11)"
   sodipodi:docname="Tooling Group Logo.svg"
   inkscape:export-filename="C:\Users\d000953\OneDrive - SAP SE\Desktop\Tooling Group Logo.png"
   inkscape:export-xdpi="359"
   inkscape:export-ydpi="359">
  <defs
     id="defs2" />
  <sodipodi:namedview
     id="base"
     pagecolor="#ffffff"
     bordercolor="#666666"
     borderopacity="1.0"
     inkscape:pageopacity="0.0"
     inkscape:pageshadow="2"
     inkscape:zoom="0.13"
     inkscape:cx="3066.9485"
     inkscape:cy="150.39103"
     inkscape:document-units="mm"
     inkscape:current-layer="layer1"
     showgrid="false"
     inkscape:measure-start="490,650"
     inkscape:measure-end="470,495"
     inkscape:snap-global="false"
     fit-margin-top="0"
     fit-margin-left="0"
     fit-margin-right="0"
     fit-margin-bottom="0"
     showguides="true"
     inkscape:guide-bbox="true"
     inkscape:window-width="1920"
     inkscape:window-height="1137"
     inkscape:window-x="-8"
     inkscape:window-y="-8"
     inkscape:window-maximized="1"
     inkscape:pagecheckerboard="true" />
  <metadata
     id="metadata5">
    <rdf:RDF>
      <cc:Work
         rdf:about="">
        <dc:format>image/svg+xml</dc:format>
        <dc:type
           rdf:resource="http://purl.org/dc/dcmitype/StillImage" />
        <dc:title></dc:title>
      </cc:Work>
    </rdf:RDF>
  </metadata>
  <g
     inkscape:label="Ebene 1"
     inkscape:groupmode="layer"
     id="layer1"
     transform="translate(482.73734,169.03663)">
    <ellipse
       style="opacity:1;fill:#ff6600;fill-opacity:1;stroke:none;stroke-width:0.06617882;stroke-linecap:round;stroke-linejoin:miter;stroke-miterlimit:4;stroke-dasharray:none;stroke-opacity:1"
       id="path815"
       cx="-392.62097"
       cy="24.423008"
       rx="90.116371"
       ry="83.760086"
       inkscape:export-xdpi="359"
       inkscape:export-ydpi="359" />
    <ellipse
       cy="-85.276543"
       cx="-186.97258"
       id="circle817"
       style="opacity:1;fill:#e35500;fill-opacity:1;stroke:none;stroke-width:0.06617882;stroke-linecap:round;stroke-linejoin:miter;stroke-miterlimit:4;stroke-dasharray:none;stroke-opacity:1"
       rx="90.116371"
       ry="83.760086"
       inkscape:export-xdpi="359"
       inkscape:export-ydpi="359" />
    <ellipse
       style="opacity:1;fill:#ff6600;fill-opacity:1;stroke:none;stroke-width:0.06617882;stroke-linecap:round;stroke-linejoin:miter;stroke-miterlimit:4;stroke-dasharray:none;stroke-opacity:1"
       id="circle819"
       cx="-179.23541"
       cy="104.75852"
       rx="90.116371"
       ry="83.760086"
       inkscape:export-xdpi="359"
       inkscape:export-ydpi="359" />
    <rect
       style="opacity:1;fill:#ff6600;fill-opacity:1;stroke:none;stroke-width:0.06597747;stroke-linecap:round;stroke-linejoin:miter;stroke-miterlimit:4;stroke-dasharray:none;stroke-opacity:1"
       id="rect821"
       width="142.35107"
       height="55.231365"
       x="-292.24118"
       y="-198.05942"
       transform="matrix(0.88051572,-0.47401695,0.53037749,0.84776159,0,0)"
       inkscape:export-xdpi="359"
       inkscape:export-ydpi="359" />
    <rect
       transform="matrix(-0.90436408,-0.42676177,0.47780163,-0.87846776,0,0)"
       y="-213.20337"
       x="141.914"
       height="55.025372"
       width="142.81427"
       id="rect825"
       style="opacity:1;fill:#ff6600;fill-opacity:1;stroke:none;stroke-width:0.06596138;stroke-linecap:round;stroke-linejoin:miter;stroke-miterlimit:4;stroke-dasharray:none;stroke-opacity:1"
       inkscape:export-xdpi="359"
       inkscape:export-ydpi="359" />
    <ellipse
       style="opacity:1;fill:#ff6600;fill-opacity:1;stroke:none;stroke-width:0.06617882;stroke-linecap:round;stroke-linejoin:miter;stroke-miterlimit:4;stroke-dasharray:none;stroke-opacity:1"
       id="circle837"
       cx="-186.97258"
       cy="-85.276543"
       rx="90.116371"
       ry="83.760086"
       inkscape:export-xdpi="359"
       inkscape:export-ydpi="359" />
    <path
       style="opacity:1;fill:#ffffff;fill-opacity:1;stroke:#e35500;stroke-width:0.11679941;stroke-linecap:round;stroke-linejoin:miter;stroke-miterlimit:4;stroke-dasharray:none;stroke-opacity:1"
       inkscape:transform-center-x="-1.2886427e-005"
       inkscape:transform-center-y="3.8935972e-006"
       d="m -361.21393,3.7561341 c -4.1874,7.0245689 -5.07695,-0.7346313 -11.55297,4.1966382 -6.47602,4.9312487 1.29692,5.5845677 -6.87738,7.0881877 -8.1743,1.503612 -1.22739,-2.796212 -10.47388,-4.671466 -9.24648,-1.8752606 -4.43263,5.800418 -12.33433,1.183964 -7.90168,-4.6164506 3.03691,-2.3553071 -2.99964,-9.780056 -6.03656,-7.4247489 -7.46865,4.5663493 -9.22791,-5.4646901 -1.75925,-10.0310359 4.24501,-1.3804833 5.7156,-9.7358059 1.47059,-8.355316 -7.1612,-3.436276 -2.49162,-10.68865 4.66958,-7.252385 2.46058,1.816714 10.59035,-3.601626 8.12976,-5.418343 -4.03015,-5.840704 6.79596,-8.585702 10.82611,-2.744993 0.48253,2.184716 11.07628,4.511458 10.59376,2.326742 4.08168,-6.134085 12.53582,-1.458933 8.45413,4.675148 -2.09553,4.211305 2.91823,10.247553 5.01376,6.036249 7.71295,-2.385105 9.14854,6.737166 1.43557,9.1222714 -4.53167,0.733414 -6.67822,9.1233289 -2.14654,8.3899107 8.04258,3.8740514 3.85517,10.8986332 z"
       id="path834"
       inkscape:connector-curvature="0"
       sodipodi:nodetypes="zzzzzzzzzzzzzzzzz"
       inkscape:export-xdpi="359"
       inkscape:export-ydpi="359" />
    <ellipse
       style="opacity:1;fill:#ff6600;fill-opacity:1;stroke:none;stroke-width:0.00879142;stroke-linecap:round;stroke-linejoin:miter;stroke-miterlimit:4;stroke-dasharray:none;stroke-opacity:1"
       id="circle837-6"
       cx="-386.75314"
       cy="-10.691027"
       rx="12.153302"
       ry="10.960391"
       inkscape:export-xdpi="359"
       inkscape:export-ydpi="359" />
    <path
       sodipodi:nodetypes="zzzzzzzzzzzzzzzzz"
       inkscape:connector-curvature="0"
       id="path899"
       d="m -403.0044,43.408465 c -4.18741,7.024575 -5.07696,-0.734628 -11.55298,4.196639 -6.47602,4.931274 1.29692,5.584593 -6.87737,7.088206 -8.17431,1.503618 -1.22741,-2.796218 -10.47389,-4.671481 -9.24648,-1.875264 -4.43262,5.800434 -12.33432,1.183969 -7.9017,-4.616459 3.03689,-2.355316 -2.99965,-9.780064 -6.03654,-7.424756 -7.46864,4.56635 -9.22792,-5.464691 -1.75925,-10.031034 4.24502,-1.380488 5.71561,-9.735804 1.4706,-8.355317 -7.1612,-3.436283 -2.49162,-10.688657 4.66958,-7.2523543 2.46059,1.816715 10.59034,-3.601613 8.12977,-5.4183239 -4.03013,-5.8406951 6.79597,-8.585684 10.82612,-2.74499827 0.48253,2.1847108 11.07628,4.5114529 10.59375,2.3267341 4.08168,-6.1340846 12.53582,-1.458932 8.45413,4.6751381 -2.09553,4.2112941 2.91823,10.2475281 5.01377,6.036257 7.71295,-2.3851 9.14853,6.737166 1.43558,9.122273 -4.53167,0.733413 -6.67821,9.123328 -2.14655,8.389915 8.04258,3.874055 3.85518,10.898637 z"
       inkscape:transform-center-y="2.5898628e-006"
       inkscape:transform-center-x="-3.7402531e-006"
       style="opacity:1;fill:#ffffff;fill-opacity:1;stroke:#e35500;stroke-width:0.11679941;stroke-linecap:round;stroke-linejoin:miter;stroke-miterlimit:4;stroke-dasharray:none;stroke-opacity:1"
       inkscape:export-xdpi="359"
       inkscape:export-ydpi="359" />
    <ellipse
       ry="10.960391"
       rx="12.153302"
       cy="28.961374"
       cx="-428.54364"
       id="ellipse901"
       style="opacity:1;fill:#ff6600;fill-opacity:1;stroke:none;stroke-width:0.00879142;stroke-linecap:round;stroke-linejoin:miter;stroke-miterlimit:4;stroke-dasharray:none;stroke-opacity:1"
       inkscape:export-xdpi="359"
       inkscape:export-ydpi="359" />
    <path
       style="opacity:1;fill:#ffffff;fill-opacity:1;stroke:#e35500;stroke-width:0.11679943;stroke-linecap:round;stroke-linejoin:miter;stroke-miterlimit:4;stroke-dasharray:none;stroke-opacity:1"
       inkscape:transform-center-x="-1.2151922e-005"
       inkscape:transform-center-y="3.9097026e-006"
       d="m -353.43452,71.613688 c -5.49323,6.178169 -4.84776,-1.600021 -12.18108,2.125368 -7.33332,3.725376 0.18108,5.71184 -8.1505,5.775404 -8.33159,0.06351 -0.65899,-2.959917 -9.38281,-6.401947 -8.72382,-3.442036 -5.49453,4.932886 -12.35913,-0.970088 -6.86461,-5.90298 3.44731,-1.789087 -1.03331,-10.128908 -4.48063,-8.339827 -8.23778,3.195116 -8.00237,-6.965852 0.2354,-10.160961 4.44415,-0.622232 7.5269,-8.577926 3.08274,-7.955707 -6.36775,-4.61523 -0.35582,-10.933833 6.01193,-6.318609 2.06335,2.210746 11.11805,-1.7072 9.05471,-3.91794 -2.81823,-6.436263 8.36383,-7.260949 11.18205,-0.824672 0.0464,2.230203 10.00644,6.348904 9.96002,4.118708 5.21483,-5.321435 12.6111,0.734756 7.39627,6.056198 -2.88535,3.775632 0.86168,10.574187 3.74702,6.798547 8.05067,-1.009528 7.67505,8.202474 -0.37563,9.212003 -4.59924,-0.06318 -8.35336,7.8096 -3.75411,7.872773 7.14857,5.197841 1.65533,11.37601 z"
       id="path909"
       inkscape:connector-curvature="0"
       sodipodi:nodetypes="zzzzzzzzzzzzzzzzz"
       inkscape:export-xdpi="359"
       inkscape:export-ydpi="359" />
    <ellipse
       style="opacity:1;fill:#ff6600;fill-opacity:1;stroke:none;stroke-width:0.00879254;stroke-linecap:round;stroke-linejoin:miter;stroke-miterlimit:4;stroke-dasharray:none;stroke-opacity:1"
       id="ellipse911"
       cx="-358.19211"
       cy="117.32651"
       rx="12.132702"
       ry="10.981816"
       transform="matrix(0.98487537,0.17326427,-0.19552242,0.98069923,0,0)"
       inkscape:export-xdpi="359"
       inkscape:export-ydpi="359" />
    <flowRoot
       xml:space="preserve"
       id="flowRoot936"
       style="font-style:normal;font-variant:normal;font-weight:bold;font-stretch:normal;font-size:192px;line-height:1.25;font-family:BentonSans;-inkscape-font-specification:'BentonSans Bold';font-variant-ligatures:normal;font-variant-caps:normal;font-variant-numeric:normal;font-feature-settings:normal;text-align:start;letter-spacing:0px;word-spacing:0px;writing-mode:lr-tb;text-anchor:start;fill:#ff6600;fill-opacity:1;stroke:none"
       transform="matrix(0.31244505,0,0,0.33006056,-563.65076,305.60246)"
       inkscape:export-xdpi="359"
       inkscape:export-ydpi="359"><flowRegion
         id="flowRegion938"
         style="font-style:normal;font-variant:normal;font-weight:bold;font-stretch:normal;font-size:192px;font-family:BentonSans;-inkscape-font-specification:'BentonSans Bold';font-variant-ligatures:normal;font-variant-caps:normal;font-variant-numeric:normal;font-feature-settings:normal;text-align:start;writing-mode:lr-tb;text-anchor:start;fill:#ff6600;fill-opacity:1"><rect
           id="rect940"
           width="1202.6211"
           height="218.74257"
           x="1553.8462"
           y="-739.0188"
           style="font-style:normal;font-variant:normal;font-weight:bold;font-stretch:normal;font-size:192px;font-family:BentonSans;-inkscape-font-specification:'BentonSans Bold';font-variant-ligatures:normal;font-variant-caps:normal;font-variant-numeric:normal;font-feature-settings:normal;text-align:start;writing-mode:lr-tb;text-anchor:start;fill:#ff6600;fill-opacity:1" /></flowRegion><flowPara
         id="flowPara944"
         style="font-style:normal;font-variant:normal;font-weight:500;font-stretch:normal;font-family:BentonSans;-inkscape-font-specification:'BentonSans Medium'">Open Source</flowPara></flowRoot>    <flowRoot
       transform="matrix(0.31244505,0,0,0.33006056,-562.59544,376.18733)"
       style="font-style:normal;font-variant:normal;font-weight:500;font-stretch:normal;font-size:152.70666504px;line-height:1.25;font-family:BentonSans;-inkscape-font-specification:'BentonSans Medium';font-variant-ligatures:normal;font-variant-caps:normal;font-variant-numeric:normal;font-feature-settings:normal;text-align:start;letter-spacing:0px;word-spacing:0px;writing-mode:lr-tb;text-anchor:start;fill:#000000;fill-opacity:1;stroke:none"
       id="flowRoot952"
       xml:space="preserve"
       inkscape:export-xdpi="359"
       inkscape:export-ydpi="359"><flowRegion
         style="font-style:normal;font-variant:normal;font-weight:500;font-stretch:normal;font-size:152.70666504px;font-family:BentonSans;-inkscape-font-specification:'BentonSans Medium';font-variant-ligatures:normal;font-variant-caps:normal;font-variant-numeric:normal;font-feature-settings:normal;text-align:start;writing-mode:lr-tb;text-anchor:start;fill:#000000;fill-opacity:1"
         id="flowRegion948"><rect
           style="font-style:normal;font-variant:normal;font-weight:500;font-stretch:normal;font-size:152.70666504px;font-family:BentonSans;-inkscape-font-specification:'BentonSans Medium';font-variant-ligatures:normal;font-variant-caps:normal;font-variant-numeric:normal;font-feature-settings:normal;text-align:start;writing-mode:lr-tb;text-anchor:start;fill:#000000;fill-opacity:1"
           y="-739.0188"
           x="1553.8462"
           height="210.21962"
           width="1072.7341"
           id="rect946" /></flowRegion><flowPara
         id="flowPara950"
         style="font-style:normal;font-variant:normal;font-weight:500;font-stretch:normal;font-size:152.70666504px;font-family:BentonSans;-inkscape-font-specification:'BentonSans Medium';font-variant-ligatures:normal;font-variant-caps:normal;font-variant-numeric:normal;font-feature-settings:normal;text-align:start;writing-mode:lr-tb;text-anchor:start;fill:#000000">Tooling Group</flowPara></flowRoot>    <flowRoot
       xml:space="preserve"
       id="flowRoot1024"
       style="font-style:normal;font-variant:normal;font-weight:normal;font-stretch:normal;font-size:10.66666698px;line-height:1.25;font-family:BentonSans;-inkscape-font-specification:BentonSans;letter-spacing:0px;word-spacing:0px;fill:#000000;fill-opacity:1;stroke:none"
       transform="matrix(0.26458333,0,0,0.26458333,-482.73735,-169.03667)"><flowRegion
         id="flowRegion1026"><rect
           id="rect1028"
           width="10691.454"
           height="6335.6768"
           x="-1456.64"
           y="-1326.4108" /></flowRegion><flowPara
         id="flowPara1030"></flowPara></flowRoot>  </g>
</svg>
